<svg xmlns="http://www.w3.org/2000/svg" viewBox="0 0 960 640" role="img" aria-labelledby="title desc">
  <title id="title">Verbal-responsive robot dog concept</title>
  <desc id="desc">A small robot dog with sensors, microphone input, and LCD expression display.</desc>
  <defs>
    <linearGradient id="bg" x1="0" y1="0" x2="1" y2="1">
      <stop offset="0" stop-color="#17324a"/>
      <stop offset="0.55" stop-color="#26445c"/>
      <stop offset="1" stop-color="#3d574f"/>
    </linearGradient>
    <linearGradient id="body" x1="0" y1="0" x2="1" y2="1">
      <stop offset="0" stop-color="#edf4f8"/>
      <stop offset="1" stop-color="#b9cbd8"/>
    </linearGradient>
    <filter id="glow" x="-30%" y="-30%" width="160%" height="160%">
      <feGaussianBlur stdDeviation="8" result="blur"/>
      <feMerge>
        <feMergeNode in="blur"/>
        <feMergeNode in="SourceGraphic"/>
      </feMerge>
    </filter>
  </defs>
  <rect width="960" height="640" fill="url(#bg)"/>
  <g opacity="0.18" stroke="#ffffff" stroke-width="3" fill="none">
    <path d="M110 505C230 470 352 470 480 505C608 540 730 540 850 505"/>
    <path d="M110 430C230 395 352 395 480 430C608 465 730 465 850 430"/>
    <path d="M110 355C230 320 352 320 480 355C608 390 730 390 850 355"/>
  </g>
  <g transform="translate(220 215)">
    <rect x="152" y="82" width="286" height="148" rx="62" fill="url(#body)" stroke="#ffffff" stroke-width="8"/>
    <rect x="430" y="58" width="148" height="122" rx="38" fill="url(#body)" stroke="#ffffff" stroke-width="8"/>
    <path d="M454 56L425 18L466 40" fill="#b9cbd8" stroke="#ffffff" stroke-width="8" stroke-linejoin="round"/>
    <path d="M552 58L585 20L574 70" fill="#b9cbd8" stroke="#ffffff" stroke-width="8" stroke-linejoin="round"/>
    <rect x="464" y="98" width="82" height="38" rx="10" fill="#172337"/>
    <circle cx="486" cy="117" r="6" fill="#68d8f6"/>
    <circle cx="524" cy="117" r="6" fill="#68d8f6"/>
    <path d="M492 134Q505 145 520 134" stroke="#f6c453" stroke-width="5" fill="none" stroke-linecap="round"/>
    <circle cx="566" cy="116" r="12" fill="#24364a" stroke="#68d8f6" stroke-width="5"/>
    <circle cx="560" cy="104" r="4" fill="#68d8f6"/>
    <rect x="196" y="54" width="74" height="42" rx="10" fill="#172337" stroke="#68d8f6" stroke-width="5"/>
    <text x="233" y="83" text-anchor="middle" font-family="Arial, sans-serif" font-size="24" font-weight="700" fill="#68d8f6">HI</text>
    <path d="M196 224L166 316" stroke="#e7f0f5" stroke-width="22" stroke-linecap="round"/>
    <path d="M280 228L274 324" stroke="#e7f0f5" stroke-width="22" stroke-linecap="round"/>
    <path d="M360 228L384 322" stroke="#e7f0f5" stroke-width="22" stroke-linecap="round"/>
    <path d="M430 220L492 304" stroke="#e7f0f5" stroke-width="22" stroke-linecap="round"/>
    <circle cx="166" cy="326" r="20" fill="#172337"/>
    <circle cx="274" cy="334" r="20" fill="#172337"/>
    <circle cx="388" cy="332" r="20" fill="#172337"/>
    <circle cx="502" cy="314" r="20" fill="#172337"/>
    <path d="M150 136C80 112 52 70 72 40C112 76 142 92 174 96" fill="none" stroke="#e7f0f5" stroke-width="18" stroke-linecap="round"/>
  </g>
  <g transform="translate(640 118)" filter="url(#glow)" fill="none" stroke="#f6c453" stroke-width="8" stroke-linecap="round">
    <path d="M0 58C28 28 66 28 94 58"/>
    <path d="M24 88C38 72 56 72 70 88"/>
    <path d="M46 116H48"/>
  </g>
  <g transform="translate(110 80)" fill="#ffffff" font-family="Arial, sans-serif">
    <text font-size="48" font-weight="800">Robot Dog</text>
    <text y="52" font-size="23" fill="#d7e3ef">Voice commands + LCD expressions</text>
  </g>
</svg>
